<?xml version="1.0" encoding="UTF-8" standalone="no"?>
<svg
   xmlns:dc="http://purl.org/dc/elements/1.1/"
   xmlns:cc="http://creativecommons.org/ns#"
   xmlns:rdf="http://www.w3.org/1999/02/22-rdf-syntax-ns#"
   xmlns:svg="http://www.w3.org/2000/svg"
   xmlns="http://www.w3.org/2000/svg"
   width="21.1105mm"
   height="19.264328mm"
   viewBox="0 0 21.1105 19.264328"
   version="1.1"
   id="svg7017">
  <defs
     id="defs7011" />
  <metadata
     id="metadata7014">
    <rdf:RDF>
      <cc:Work
         rdf:about="">
        <dc:format>image/svg+xml</dc:format>
        <dc:type
           rdf:resource="http://purl.org/dc/dcmitype/StillImage" />
        <dc:title></dc:title>
      </cc:Work>
    </rdf:RDF>
  </metadata>
  <g
     id="layer1"
     transform="translate(-75.623352,-115.01067)">
    <g
       id="g7581"
       transform="translate(212.42262,-77.107143)">
      <path
         d="m -116.115,206.82217 c -0.26635,-0.0325 -0.50694,0.15699 -0.53904,0.42228 -0.004,0.0279 -0.36336,2.75449 -2.92912,3.10056 -3.27307,0.44062 -4.00156,-1.37266 -4.48345,-2.57245 l -0.0275,-0.0681 c -0.44026,-1.09396 -0.76094,-2.08209 -0.99483,-2.80352 -0.25259,-0.77823 -0.40499,-1.24813 -0.57679,-1.49966 -0.13688,-0.20003 -3.30306,-4.93819 0.70732,-8.8893 1.39982,-1.37936 3.29459,-1.7854 5.06871,-1.08549 1.7212,0.67909 2.83563,2.19745 2.90759,3.96169 0.0113,0.26705 0.23531,0.47413 0.50412,0.4639 0.26706,-0.0109 0.47484,-0.23671 0.46426,-0.50376 -0.0875,-2.1202 -1.46932,-4.01285 -3.52037,-4.82248 -2.14066,-0.84525 -4.42242,-0.36018 -6.10412,1.29646 -1.73566,1.71027 -2.51706,3.83928 -2.26095,6.15774 0.2353,2.12654 1.23578,3.67877 1.4344,3.96804 0.0935,0.13688 0.26881,0.6784 0.45508,1.25131 0.23848,0.73519 0.5648,1.74201 1.01776,2.86632 l 0.0272,0.0677 c 0.4699,1.16981 1.30422,3.24873 4.4122,3.24873 0.33866,0 0.70449,-0.025 1.09925,-0.078 2.63984,-0.3556 3.61456,-2.73474 3.76096,-3.94335 0.0321,-0.26529 -0.15698,-0.50659 -0.42262,-0.5387"
         style="fill:#000000;fill-opacity:1;fill-rule:nonzero;stroke:none;stroke-width:0.35277775"
         id="path220" />
      <path
         d="m -118.14093,201.62057 c 0.16016,-0.043 0.35419,0.0416 0.41063,0.0751 0.22684,0.14182 0.52564,0.0727 0.6671,-0.15416 0.14217,-0.22684 0.0734,-0.52564 -0.15381,-0.6671 -0.0568,-0.0356 -0.57361,-0.34326 -1.16028,-0.19297 -0.25506,0.0653 -0.6156,0.24412 -0.88583,0.72672 -0.496,0.88582 0.0875,1.93428 0.47414,2.62784 0.0956,0.17251 0.21519,0.387 0.23495,0.46285 0.12664,0.49318 -0.0346,1.04386 -0.38347,1.31021 -0.38735,0.29598 -0.85443,0.13829 -1.17828,-0.0462 -1.43157,-0.81703 -1.90888,-2.26095 -1.41923,-4.2926 0.52458,-2.17628 2.1717,-2.60491 2.55976,-2.67652 0.14993,0.4699 0.19156,0.84173 0.19226,0.84949 0.0268,0.26599 0.26459,0.46002 0.53023,0.43321 0.26635,-0.0272 0.46002,-0.26459 0.43321,-0.53058 -0.008,-0.0871 -0.23072,-2.14313 -1.63795,-3.1429 -0.7306,-0.51858 -1.6256,-0.65652 -2.661,-0.40887 -1.57374,0.37642 -2.50366,1.62737 -2.68958,3.61844 -0.13158,1.41006 0.15981,2.69805 0.17216,2.75238 0.0519,0.22401 0.25082,0.37535 0.47131,0.37535 0.036,0 0.0723,-0.004 0.10901,-0.012 0.26035,-0.0596 0.42333,-0.31961 0.36371,-0.58032 -0.003,-0.012 -0.27129,-1.20791 -0.14958,-2.46521 0.14923,-1.54869 0.80504,-2.47297 1.94804,-2.74602 0.76094,-0.18168 1.37301,-0.0988 1.87184,0.25435 0.26494,0.18768 0.47519,0.43604 0.641,0.70274 -0.77752,0.20249 -2.51037,0.92004 -3.09563,3.34997 -0.75106,3.11538 0.60819,4.63445 1.88101,5.36046 0.39476,0.22578 0.7934,0.33796 1.17017,0.33796 0.39088,0 0.75882,-0.121 1.07526,-0.36301 0.66534,-0.50764 0.95991,-1.44074 0.73343,-2.32127 -0.0508,-0.19685 -0.17216,-0.41558 -0.32667,-0.69251 -0.28152,-0.50553 -0.70662,-1.26964 -0.47519,-1.6838 0.12276,-0.21908 0.23883,-0.25083 0.27728,-0.26106"
         style="fill:#000000;fill-opacity:1;fill-rule:nonzero;stroke:none;stroke-width:0.35277775"
         id="path224" />
      <path
         d="m -129.21766,206.00115 -3.27131,2.5393 c -0.25223,0.19614 -0.29774,0.5595 -0.10195,0.81174 0.11359,0.14676 0.28434,0.22401 0.45685,0.22401 0.12417,0 0.24906,-0.0399 0.35454,-0.12206 l 3.27095,-2.53964 c 0.25259,-0.19615 0.29775,-0.55916 0.10231,-0.81175 -0.19579,-0.25188 -0.55915,-0.29774 -0.81139,-0.1016"
         style="fill:#000000;fill-opacity:1;fill-rule:nonzero;stroke:none;stroke-width:0.35277775"
         id="path228" />
      <path
         d="m -129.94219,200.98077 c -0.025,-0.31185 -0.29704,-0.54433 -0.6096,-0.51929 l -5.72629,0.45756 c -0.31221,0.025 -0.54469,0.29739 -0.51929,0.60924 0.0236,0.29634 0.27128,0.52141 0.56338,0.52141 0.0152,0 0.0307,0 0.0459,-0.004 l 5.72665,-0.4572 c 0.31115,-0.025 0.54398,-0.29774 0.51929,-0.6096"
         style="fill:#000000;fill-opacity:1;fill-rule:nonzero;stroke:none;stroke-width:0.35277775"
         id="path232" />
      <path
         d="m -134.03145,194.19125 4.18959,1.20897 c 0.0572,0.0166 0.11465,0.0243 0.17074,0.0243 0.26741,0 0.51364,-0.17568 0.59161,-0.44521 0.0945,-0.32702 -0.0942,-0.66816 -0.42087,-0.76235 l -4.18923,-1.20932 c -0.32703,-0.0942 -0.66816,0.0942 -0.76271,0.42086 -0.0945,0.32703 0.0942,0.66816 0.42087,0.76271"
         style="fill:#000000;fill-opacity:1;fill-rule:nonzero;stroke:none;stroke-width:0.35277775"
         id="path236" />
    </g>
  </g>
</svg>
