<?xml version="1.0" encoding="UTF-8" standalone="no"?>
<svg
   xmlns:dc="http://purl.org/dc/elements/1.1/"
   xmlns:cc="http://creativecommons.org/ns#"
   xmlns:rdf="http://www.w3.org/1999/02/22-rdf-syntax-ns#"
   xmlns:svg="http://www.w3.org/2000/svg"
   xmlns="http://www.w3.org/2000/svg"
   id="svg5810"
   version="1.1"
   viewBox="0 0 24.740658 22.012066"
   height="22.012066mm"
   width="24.740658mm">
  <defs
     id="defs5804" />
  <metadata
     id="metadata5807">
    <rdf:RDF>
      <cc:Work
         rdf:about="">
        <dc:format>image/svg+xml</dc:format>
        <dc:type
           rdf:resource="http://purl.org/dc/dcmitype/StillImage" />
        <dc:title></dc:title>
      </cc:Work>
    </rdf:RDF>
  </metadata>
  <g
     transform="translate(-97.998718,-131.02373)"
     id="layer1">
    <g
       id="g6389">
      <path
         id="path298"
         style="fill:#000000;fill-opacity:1;fill-rule:nonzero;stroke:none;stroke-width:0.35277775"
         d="m 122.12646,144.75045 c -0.97613,-1.55751 -4.62703,-6.48158 -11.75737,-6.48158 -7.13035,0 -10.78054,4.92407 -11.757382,6.48158 -0.256117,0.17886 -0.392289,0.47802 -0.363714,0.77859 -0.02787,0.30127 0.10795,0.60007 0.363714,0.77963 0.976489,1.55716 4.627032,6.48159 11.757382,6.48159 7.13034,0 10.78124,-4.92478 11.75737,-6.48159 0.25647,-0.17921 0.39194,-0.47836 0.36372,-0.77963 0.0282,-0.30057 -0.10725,-0.59973 -0.36372,-0.77859 m -11.75737,6.32425 c -6.09177,0 -9.28582,-4.10386 -10.21821,-5.54073 0.9338,-1.41922 4.17195,-5.54954 10.21821,-5.54954 6.09141,0 9.28652,4.10316 10.21891,5.54037 -0.93416,1.41923 -4.1723,5.5499 -10.21891,5.5499" />
      <path
         id="path302"
         style="fill:#000000;stroke:#ffffff;stroke-width:0.49106666;stroke-linecap:butt;stroke-linejoin:miter;stroke-miterlimit:10;stroke-dasharray:none;stroke-opacity:1"
         d="m 122.12646,144.75045 c -0.97613,-1.55751 -4.62703,-6.48158 -11.75737,-6.48158 -7.13035,0 -10.78054,4.92407 -11.757382,6.48158 -0.256117,0.17886 -0.392289,0.47802 -0.363714,0.77859 -0.02787,0.30127 0.10795,0.60007 0.363714,0.77963 0.976489,1.55716 4.627032,6.48159 11.757382,6.48159 7.13034,0 10.78124,-4.92478 11.75737,-6.48159 0.25647,-0.17921 0.39194,-0.47836 0.36372,-0.77963 0.0282,-0.30057 -0.10725,-0.59973 -0.36372,-0.77859 z m -11.75737,6.32425 c -6.09177,0 -9.28582,-4.10386 -10.21821,-5.54073 0.9338,-1.41922 4.17195,-5.54954 10.21821,-5.54954 6.09141,0 9.28652,4.10316 10.21891,5.54037 -0.93416,1.41923 -4.1723,5.5499 -10.21891,5.5499 z" />
      <path
         id="path306"
         style="fill:#000000;fill-opacity:1;fill-rule:nonzero;stroke:none;stroke-width:0.35277775"
         d="m 110.36916,140.54884 c -2.79012,0 -5.05954,2.26977 -5.05954,5.06024 0,2.79012 2.26942,5.05919 5.05954,5.05919 2.79012,0 5.06024,-2.26907 5.06024,-5.05919 0,-2.79047 -2.27012,-5.06024 -5.06024,-5.06024 m 0,8.40457 c -1.84433,0 -3.34434,-1.50036 -3.34434,-3.34433 0,-1.84432 1.50001,-3.34504 3.34434,-3.34504 1.84432,0 3.34468,1.50072 3.34468,3.34504 0,1.84397 -1.50036,3.34433 -3.34468,3.34433" />
      <path
         id="path310"
         style="fill:#000000;stroke:#ffffff;stroke-width:0.49106666;stroke-linecap:butt;stroke-linejoin:miter;stroke-miterlimit:10;stroke-dasharray:none;stroke-opacity:1"
         d="m 110.36916,140.54884 c -2.79012,0 -5.05954,2.26977 -5.05954,5.06024 0,2.79012 2.26942,5.05919 5.05954,5.05919 2.79012,0 5.06024,-2.26907 5.06024,-5.05919 0,-2.79047 -2.27012,-5.06024 -5.06024,-5.06024 z m 0,8.40457 c -1.84433,0 -3.34434,-1.50036 -3.34434,-3.34433 0,-1.84432 1.50001,-3.34504 3.34434,-3.34504 1.84432,0 3.34468,1.50072 3.34468,3.34504 0,1.84397 -1.50036,3.34433 -3.34468,3.34433 z" />
      <path
         id="path314"
         style="fill:#000000;fill-opacity:1;fill-rule:nonzero;stroke:none;stroke-width:0.35277775"
         d="m 110.36916,135.72591 c 0.47342,0 0.8576,-0.38383 0.8576,-0.85761 v -2.74179 c 0,-0.47342 -0.38418,-0.85725 -0.8576,-0.85725 -0.47378,0 -0.85761,0.38383 -0.85761,0.85725 v 2.74179 c 0,0.47378 0.38383,0.85761 0.85761,0.85761" />
      <path
         id="path318"
         style="fill:#000000;stroke:#ffffff;stroke-width:0.49106666;stroke-linecap:butt;stroke-linejoin:miter;stroke-miterlimit:10;stroke-dasharray:none;stroke-opacity:1"
         d="m 110.36916,135.72591 c 0.47342,0 0.8576,-0.38383 0.8576,-0.85761 v -2.74179 c 0,-0.47342 -0.38418,-0.85725 -0.8576,-0.85725 -0.47378,0 -0.85761,0.38383 -0.85761,0.85725 v 2.74179 c 0,0.47378 0.38383,0.85761 0.85761,0.85761 z" />
      <path
         id="path322"
         style="fill:#000000;fill-opacity:1;fill-rule:nonzero;stroke:none;stroke-width:0.35277775"
         d="m 118.25878,137.67518 c 0.21908,0 0.43886,-0.084 0.60643,-0.25153 l 1.93887,-1.93816 c 0.33513,-0.33514 0.33513,-0.87842 0,-1.21285 -0.33444,-0.33514 -0.87772,-0.33479 -1.2125,0 l -1.93922,1.93922 c -0.33514,0.33478 -0.33514,0.87771 -3.5e-4,1.21249 0.16757,0.16722 0.387,0.25153 0.60678,0.25153" />
      <path
         id="path326"
         style="fill:#000000;stroke:#ffffff;stroke-width:0.49106666;stroke-linecap:butt;stroke-linejoin:miter;stroke-miterlimit:10;stroke-dasharray:none;stroke-opacity:1"
         d="m 118.25878,137.67518 c 0.21908,0 0.43886,-0.084 0.60643,-0.25153 l 1.93887,-1.93816 c 0.33513,-0.33514 0.33513,-0.87842 0,-1.21285 -0.33444,-0.33514 -0.87772,-0.33479 -1.2125,0 l -1.93922,1.93922 c -0.33514,0.33478 -0.33514,0.87771 -3.5e-4,1.21249 0.16757,0.16722 0.387,0.25153 0.60678,0.25153 z" />
      <path
         id="path330"
         style="fill:#000000;fill-opacity:1;fill-rule:nonzero;stroke:none;stroke-width:0.35277775"
         d="m 102.1966,137.42344 c 0.16722,0.16757 0.38664,0.25117 0.60643,0.25117 0.21942,0 0.4392,-0.0836 0.60642,-0.25117 0.33479,-0.33514 0.33479,-0.87807 0,-1.2125 l -1.93887,-1.93887 c -0.33443,-0.33514 -0.87806,-0.33514 -1.2132,0 -0.334432,0.33444 -0.334432,0.87807 0,1.2125 z" />
      <path
         id="path334"
         style="fill:#000000;stroke:#ffffff;stroke-width:0.49106666;stroke-linecap:butt;stroke-linejoin:miter;stroke-miterlimit:10;stroke-dasharray:none;stroke-opacity:1"
         d="m 102.1966,137.42344 c 0.16722,0.16757 0.38664,0.25117 0.60643,0.25117 0.21942,0 0.4392,-0.0836 0.60642,-0.25117 0.33479,-0.33514 0.33479,-0.87807 0,-1.2125 l -1.93887,-1.93887 c -0.33443,-0.33514 -0.87806,-0.33514 -1.2132,0 -0.334432,0.33444 -0.334432,0.87807 0,1.2125 z" />
    </g>
  </g>
</svg>
