<?xml version="1.0" encoding="UTF-8" standalone="no"?>
<svg
   xmlns:dc="http://purl.org/dc/elements/1.1/"
   xmlns:cc="http://creativecommons.org/ns#"
   xmlns:rdf="http://www.w3.org/1999/02/22-rdf-syntax-ns#"
   xmlns:svg="http://www.w3.org/2000/svg"
   xmlns="http://www.w3.org/2000/svg"
   id="svg6425"
   version="1.1"
   viewBox="0 0 19.806351 19.8067"
   height="19.8067mm"
   width="19.806351mm">
  <defs
     id="defs6419" />
  <metadata
     id="metadata6422">
    <rdf:RDF>
      <cc:Work
         rdf:about="">
        <dc:format>image/svg+xml</dc:format>
        <dc:type
           rdf:resource="http://purl.org/dc/dcmitype/StillImage" />
        <dc:title></dc:title>
      </cc:Work>
    </rdf:RDF>
  </metadata>
  <g
     transform="translate(-67.20397,-99.62046)"
     id="layer1">
    <g
       transform="translate(-142.875,-31.75)"
       id="g6977">
      <path
         id="path584"
         style="fill:#000000;fill-opacity:1;fill-rule:nonzero;stroke:none;stroke-width:0.35277775"
         d="m 219.98214,131.37046 c -5.46382,0 -9.90317,4.43935 -9.90317,9.90317 0,5.46418 4.43935,9.90353 9.90317,9.90353 5.46383,0 9.90318,-4.43935 9.90318,-9.90353 0,-5.46382 -4.43935,-9.90317 -9.90318,-9.90317 m 0,0.9211 c 4.96606,0 8.98208,4.01602 8.98208,8.98207 0,4.96606 -4.01602,8.98208 -8.98208,8.98208 -4.96605,0 -8.98207,-4.01602 -8.98207,-8.98208 0,-4.96605 4.01602,-8.98207 8.98207,-8.98207 m -2.55622,4.13843 c -0.25436,-0.004 -0.46391,0.19897 -0.46779,0.45332 0,0.005 0,0.01 0,0.0145 v 8.75171 c -0.002,0.2547 0.20214,0.46249 0.4565,0.46496 0.0822,0 0.16333,-0.0208 0.23424,-0.0617 l 7.83061,-4.37586 c 0.16616,-0.0935 0.25788,-0.2794 0.23036,-0.46778 -0.0198,-0.14252 -0.10477,-0.26775 -0.23036,-0.33831 l -7.83061,-4.37585 c -0.0674,-0.0406 -0.14429,-0.0628 -0.22295,-0.0649 m 0.45331,1.25237 6.42726,3.59127 -6.42726,3.59163 z" />
    </g>
  </g>
</svg>
